<?xml version="1.0" encoding="utf-8"?>
<svg version="1.1" xmlns="http://www.w3.org/2000/svg" width="466" height="536">
  <path d="M0 0 C3.09965018 4.011312 4.36974102 6.68454809 4 11.75 C2.53038483 21.75971219 -1.30667011 30.92379279 -5.1875 40.1875 C-8.40847841 47.88298365 -11.29309192 55.60843655 -13.8125 63.5625 C-14.09456299 64.4505835 -14.37662598 65.33866699 -14.66723633 66.25366211 C-21.23774196 87.4936713 -19.78456753 104.8607268 -12.30126953 125.68457031 C-9.56914735 133.38068229 -7.12647438 141.17827447 -4.61505127 148.94839478 C-3.71052725 151.74139614 -2.80050066 154.53253349 -1.88818359 157.32299805 C0.79006703 165.51630243 3.45482164 173.71378936 6.05078125 181.93359375 C6.26308884 182.59948013 6.47539642 183.26536652 6.69413757 183.95143127 C8.125 188.51573437 8.125 188.51573437 8.125 190.75 C9.115 190.42 10.105 190.09 11.125 189.75 C35.05417836 186.52881327 63.59558642 186.8146787 83.79296875 201.71875 C90.35945982 207.22800691 95.11227066 212.859291 96.59375 221.4765625 C97.04173378 229.42827456 94.43716797 235.51311508 89.5859375 241.71875 C77.87243166 254.37599802 59.44697861 259.25243316 43.125 262.75 C41.19527344 263.16572266 41.19527344 263.16572266 39.2265625 263.58984375 C28.91841148 265.6576465 18.5854017 266.78354984 8.125 267.75 C7.795 267.09 7.465 266.43 7.125 265.75 C11.57835153 263.28893731 15.80462799 262.03990391 20.75 261.0625 C38.04123082 257.29372681 56.18725247 250.11273653 69.125 237.75 C69.455 237.09 69.785 236.43 70.125 235.75 C70.785 235.75 71.445 235.75 72.125 235.75 C73.82854629 229.30610556 73.82854629 229.30610556 73.5625 222.75 C71.70481156 220.16539 70.09199902 219.83818302 67.125 218.75 C66.30902344 218.42 65.49304688 218.09 64.65234375 217.75 C35.82879474 206.62054518 2.70643404 214.35636252 -24.875 225.75 C-26.93594096 226.52499203 -28.99823372 227.29640927 -31.0625 228.0625 C-38.51066486 230.92384389 -45.68445087 234.3069318 -52.875 237.75 C-54.57273618 238.55897263 -56.27066311 239.36754504 -57.96875 240.17578125 C-58.85409424 240.59738525 -59.73943848 241.01898926 -60.65161133 241.45336914 C-62.46904868 242.31866809 -64.2865945 243.18373926 -66.10424805 244.04858398 C-67.43516479 244.68195679 -67.43516479 244.68195679 -68.79296875 245.328125 C-69.65841309 245.73998047 -70.52385742 246.15183594 -71.41552734 246.57617188 C-73.60926919 247.62317513 -75.7992534 248.67756552 -77.98828125 249.734375 C-85.60774964 253.38662504 -93.31577556 256.53385488 -101.25 259.41796875 C-104.09976467 260.46513443 -106.89179079 261.57056018 -109.6875 262.75 C-141.89931704 275.60272832 -181.66899194 283.55750831 -215 270.5 C-228.44256976 264.60663498 -237.57042384 257.12141789 -244.75 244.4375 C-247.51868473 235.36236673 -246.21223462 228.07989476 -241.96875 219.734375 C-241.6078125 219.07953125 -241.246875 218.4246875 -240.875 217.75 C-240.215 217.75 -239.555 217.75 -238.875 217.75 C-238.61847656 217.15703125 -238.36195313 216.5640625 -238.09765625 215.953125 C-231.98524465 204.93906704 -213.83051662 199.35686682 -202.4375 195.9375 C-192.01211996 192.97116595 -180.74527552 190.42474766 -169.875 190.75 C-170.205 191.74 -170.535 192.73 -170.875 193.75 C-173.43196715 194.96388335 -175.92131028 196.00553243 -178.5625 197 C-184.3422536 199.2756138 -190.00949496 201.64995392 -195.5625 204.4375 C-196.63886719 204.97761719 -197.71523437 205.51773438 -198.82421875 206.07421875 C-204.21544749 209.03559792 -208.82914057 212.4560198 -213.359375 216.578125 C-214.875 217.75 -214.875 217.75 -216.875 217.75 C-217.24625 218.554375 -217.24625 218.554375 -217.625 219.375 C-218.875 221.75 -218.875 221.75 -220.9375 224.625 C-223.4474577 228.67331887 -224.34236333 231.62090041 -223.3125 236.3125 C-218.76448049 244.02435916 -209.84829754 247.22768575 -201.671875 249.73046875 C-165.89583724 258.27340153 -127.1727423 245.55403872 -95.03515625 230.2421875 C-92.57445699 229.08027512 -90.10722504 227.9630769 -87.6171875 226.8671875 C-82.67365385 224.68051518 -77.80753993 222.34473219 -72.9375 220 C-36.57363451 202.60662691 -36.57363451 202.60662691 -20.92578125 198.390625 C-18.76565892 197.71584393 -16.88532479 196.78098957 -14.875 195.75 C-15.29007813 194.51636719 -15.70515625 193.28273438 -16.1328125 192.01171875 C-20.5265542 178.91133752 -24.84595015 165.78676952 -29.13494873 152.65176392 C-29.74561862 150.78248398 -30.35712833 148.91347817 -30.96954346 147.04476929 C-46.5210754 99.57265158 -43.01406031 70.152743 -24.875 23.75 C-32.33738971 26.18293396 -39.08472152 29.29213886 -45.92211914 33.10742188 C-50.6871271 35.75 -50.6871271 35.75 -52.875 35.75 C-52.875 36.41 -52.875 37.07 -52.875 37.75 C-53.76251953 38.22179687 -53.76251953 38.22179687 -54.66796875 38.703125 C-59.08320275 41.09440997 -62.97825438 43.56175359 -66.875 46.75 C-67.535 46.75 -68.195 46.75 -68.875 46.75 C-69.205 47.74 -69.535 48.73 -69.875 49.75 C-75.34011628 54.75 -75.34011628 54.75 -77.875 54.75 C-78.28685547 55.64525391 -78.28685547 55.64525391 -78.70703125 56.55859375 C-79.82509519 58.65636589 -80.95007375 60.08521599 -82.5625 61.8125 C-96.80322429 78.06776578 -103.37575893 99.73852151 -109.94726562 119.91845703 C-111.70256598 125.27581849 -113.49449258 130.62107053 -115.28012085 135.96838379 C-116.73253943 140.31896438 -118.18207825 144.67050504 -119.63110352 149.0222168 C-120.4878859 151.58987337 -121.34739365 154.15646547 -122.21069336 156.72192383 C-124.36657726 163.13816729 -126.46623768 169.54986039 -128.3125 176.0625 C-130.69684065 184.32431703 -133.36041476 192.47778397 -136.14746094 200.61181641 C-136.85415997 202.68875269 -137.54173584 204.77123564 -138.2265625 206.85546875 C-138.64679688 208.09941406 -139.06703125 209.34335937 -139.5 210.625 C-139.86351562 211.71554687 -140.22703125 212.80609375 -140.6015625 213.9296875 C-141.97975737 216.98200866 -143.26839772 218.66374557 -145.875 220.75 C-150.49101153 221.86677698 -152.72285727 222.1630323 -157.1875 220.5625 C-160.81484303 218.11615238 -162.43180548 216.37262475 -163.58984375 212.1328125 C-163.95007783 207.85935073 -162.92745564 204.44819674 -161.625 200.4375 C-161.36412598 199.60009277 -161.10325195 198.76268555 -160.83447266 197.89990234 C-157.64698201 187.78866174 -154.24256934 177.74089879 -150.83496094 167.7019043 C-148.24505849 160.04535966 -145.84619231 152.38481145 -143.70751953 144.58740234 C-142.70576291 141.17320425 -141.27592682 138.01882925 -139.875 134.75 C-138.83586187 131.3325834 -137.87401946 127.89748768 -136.9140625 124.45703125 C-134.63859119 116.33890241 -132.19657124 108.50033289 -128.875 100.75 C-128.23573513 98.67099947 -127.61240342 96.58707087 -127 94.5 C-125.12219337 88.28552297 -122.72707711 82.57266159 -119.875 76.75 C-119.06869141 75.06197266 -119.06869141 75.06197266 -118.24609375 73.33984375 C-114.5806998 65.8040562 -110.54228965 58.70783286 -105.875 51.75 C-105.215 50.76 -104.555 49.77 -103.875 48.75 C-103.215 48.75 -102.555 48.75 -101.875 48.75 C-101.648125 48.028125 -101.42125 47.30625 -101.1875 46.5625 C-99.00905342 41.8944002 -95.65200421 38.6961869 -90.875 36.75 C-90.875 36.09 -90.875 35.43 -90.875 34.75 C-88.94912421 33.11860063 -87.03173283 31.61276775 -85 30.125 C-84.44441406 29.70476562 -83.88882813 29.28453125 -83.31640625 28.8515625 C-79.13735288 25.75 -79.13735288 25.75 -76.875 25.75 C-76.545 24.76 -76.215 23.77 -75.875 22.75 C-73.94140625 21.35546875 -73.94140625 21.35546875 -71.4375 19.9375 C-70.52871094 19.41542969 -69.61992187 18.89335937 -68.68359375 18.35546875 C-67.75675781 17.82566406 -66.82992187 17.29585937 -65.875 16.75 C-64.24849728 15.75244604 -62.62346226 14.75249453 -61 13.75 C-47.2622228 5.54162455 -15.67642704 -12.26850812 0 0 Z " transform="translate(307.875,131.25)" style="fill: rgb(53, 104, 218);"/>
</svg>